<svg width="48" height="48" viewBox="0 0 48 48" fill="none" xmlns="http://www.w3.org/2000/svg">
<g filter="url(#filter0_d_162_973)">
<rect x="4" width="40" height="40" rx="20" fill="url(#paint0_linear_162_973)"/>
</g>
<path d="M16.083 17.25V16.3333C16.083 13.5833 17.6663 11.75 20.0413 11.75H27.958C30.333 11.75 31.9163 13.5833 31.9163 16.3333V23.6667C31.9163 26.4167 30.333 28.25 27.958 28.25H27.1663" stroke="white" stroke-width="1.5" stroke-linecap="round" stroke-linejoin="round"/>
<path d="M17.4209 19.7344C21.0784 20.2752 23.7621 23.3919 24.2371 27.6269" stroke="white" stroke-width="1.5" stroke-linecap="round" stroke-linejoin="round"/>
<path d="M16.5742 22.8145C19.258 23.2086 21.2292 25.5003 21.5776 28.6078" stroke="white" stroke-width="1.5" stroke-linecap="round" stroke-linejoin="round"/>
<path d="M16.0674 26.2881C17.4053 26.4898 18.3949 27.6264 18.5691 29.1848" stroke="white" stroke-width="1.5" stroke-linecap="round" stroke-linejoin="round"/>
<defs>
<filter id="filter0_d_162_973" x="0" y="0" width="48" height="48" filterUnits="userSpaceOnUse" color-interpolation-filters="sRGB">
<feFlood flood-opacity="0" result="BackgroundImageFix"/>
<feColorMatrix in="SourceAlpha" type="matrix" values="0 0 0 0 0 0 0 0 0 0 0 0 0 0 0 0 0 0 127 0" result="hardAlpha"/>
<feOffset dy="4"/>
<feGaussianBlur stdDeviation="2"/>
<feComposite in2="hardAlpha" operator="out"/>
<feColorMatrix type="matrix" values="0 0 0 0 0 0 0 0 0 0 0 0 0 0 0 0 0 0 0.25 0"/>
<feBlend mode="normal" in2="BackgroundImageFix" result="effect1_dropShadow_162_973"/>
<feBlend mode="normal" in="SourceGraphic" in2="effect1_dropShadow_162_973" result="shape"/>
</filter>
<linearGradient id="paint0_linear_162_973" x1="11.5661" y1="40" x2="43.042" y2="38.3785" gradientUnits="userSpaceOnUse">
<stop stop-color="#DC6B30"/>
<stop offset="0.421875" stop-color="#E4864F"/>
<stop offset="0.729167" stop-color="#FFBE82"/>
<stop offset="1" stop-color="#E49031"/>
</linearGradient>
</defs>
</svg>
