<svg width="48" height="48" viewBox="0 0 48 48" fill="none" xmlns="http://www.w3.org/2000/svg">
<g filter="url(#filter0_d_162_988)">
<rect x="4" width="40" height="40" rx="20" fill="url(#paint0_linear_162_988)"/>
</g>
<path d="M14.7495 7.5V10.0356C16.2752 10.9935 18.62 12.3309 20.6833 13.622C21.7554 14.2927 22.7512 14.9497 23.5133 15.5424C24.2805 16.1305 24.8394 16.5991 25.0121 17.1826L25.0274 17.2285V17.2745C25.0477 17.9728 25.2154 18.4322 25.4288 18.7079C25.6422 18.9836 25.8911 19.103 26.2214 19.1444C26.8768 19.2316 27.8574 18.8687 28.6246 18.2622C29.3867 17.6558 29.8948 16.8426 29.8541 16.2315C29.8338 15.9283 29.7068 15.6618 29.3765 15.4C29.0514 15.1381 28.4975 14.89 27.6541 14.7292C27.0444 14.6143 26.2417 14.2054 25.1493 13.6128C24.0569 13.0247 22.7359 12.2574 21.3641 11.4442C18.9558 10.009 16.4439 8.46757 14.7495 7.5ZM23.3355 7.63094C24.2297 8.15515 25.7793 9.10067 27.395 10.2603C29.8795 12.0415 32.4555 14.3571 32.928 16.0937V16.0983C33.0499 16.5577 33.1058 17.789 33.0703 19.2776C33.0347 20.7616 32.9331 22.535 32.8061 24.2395C32.6536 26.3161 32.4707 28.2779 32.3539 29.5H33.2735C33.3903 28.2687 33.5682 26.3391 33.7206 24.2946C33.8425 22.5855 33.9492 20.8029 33.9848 19.2914C34.0204 17.7844 34.0051 16.5899 33.812 15.9008V15.8962C33.2125 13.6955 30.4994 11.4305 27.9641 9.61202C26.8869 8.83971 25.8352 8.15975 24.9817 7.63094H23.3355ZM14.5 13.3601V14.4857C16.987 16.5348 20.5207 19.1581 22.8274 20.6559C22.2888 23.3574 22.3905 26.7526 22.4717 29.5H23.3863C23.2999 26.6561 23.2085 23.146 23.7724 20.5548L23.8334 20.2883L23.5895 20.1321C21.1609 18.5838 17.0196 15.4873 14.5 13.3601ZM30.6213 14.8762L31.0278 18.5333C31.4596 18.3082 31.7289 18.0371 31.8915 17.7523C32.11 17.3572 32.1354 16.9069 32.0135 16.4567C31.8153 15.7675 31.2412 15.1427 30.6213 14.8762ZM29.6814 18.8963C29.5493 18.9744 29.3359 19.1627 29.0107 19.3649C28.4112 19.7416 27.4153 20.0908 25.6523 19.9989C25.6117 20.371 25.7844 20.6972 26.1706 21.0326C26.6481 21.4553 27.4611 21.8229 28.4163 22.0158L28.5687 22.048L28.6703 22.1582C28.8989 22.4155 28.9599 22.6912 29.0514 23.0817C29.1428 23.4722 29.2241 23.9592 29.2952 24.5105C29.4375 25.6178 29.5442 26.9915 29.6204 28.333C29.6407 28.7282 29.661 29.1187 29.6763 29.5H31.1497C31.0887 27.0512 31.1192 24.2992 31.4139 21.3956C31.419 20.8305 31.3885 20.2792 31.1904 19.8473C30.9922 19.4154 30.662 19.0938 29.9202 18.8595C29.8236 18.8273 29.7423 18.8595 29.6814 18.8963ZM25.7895 21.832C25.7895 21.9791 25.7946 22.1261 25.8047 22.2731C25.8403 22.8979 25.9724 23.4538 26.1706 23.6882L26.2671 23.803L26.2468 29.5H27.1511L27.2578 23.6514L27.3747 23.5365C27.6643 23.2517 27.7913 23.0082 27.8828 22.7417C27.0749 22.5442 26.3484 22.2409 25.7895 21.832Z" fill="white"/>
<defs>
<filter id="filter0_d_162_988" x="0" y="0" width="48" height="48" filterUnits="userSpaceOnUse" color-interpolation-filters="sRGB">
<feFlood flood-opacity="0" result="BackgroundImageFix"/>
<feColorMatrix in="SourceAlpha" type="matrix" values="0 0 0 0 0 0 0 0 0 0 0 0 0 0 0 0 0 0 127 0" result="hardAlpha"/>
<feOffset dy="4"/>
<feGaussianBlur stdDeviation="2"/>
<feComposite in2="hardAlpha" operator="out"/>
<feColorMatrix type="matrix" values="0 0 0 0 0 0 0 0 0 0 0 0 0 0 0 0 0 0 0.25 0"/>
<feBlend mode="normal" in2="BackgroundImageFix" result="effect1_dropShadow_162_988"/>
<feBlend mode="normal" in="SourceGraphic" in2="effect1_dropShadow_162_988" result="shape"/>
</filter>
<linearGradient id="paint0_linear_162_988" x1="11.5661" y1="40" x2="43.042" y2="38.3785" gradientUnits="userSpaceOnUse">
<stop stop-color="#DC6B30"/>
<stop offset="0.421875" stop-color="#E4864F"/>
<stop offset="0.729167" stop-color="#FFBE82"/>
<stop offset="1" stop-color="#E49031"/>
</linearGradient>
</defs>
</svg>
