<svg width="22" height="22" viewBox="0 0 22 22" fill="none" xmlns="http://www.w3.org/2000/svg">
<path d="M12.2891 13.8215C12.5691 13.8215 12.7891 14.0418 12.7891 14.3224V16.8283H14.5889C15.0288 16.8283 15.2492 17.3691 14.9395 17.6799L11.1494 21.4787C10.9496 21.679 10.6395 21.6788 10.4395 21.4787L6.64945 17.6799C6.32947 17.3692 6.54911 16.8284 6.99905 16.8283H8.78909V14.3224C8.78909 14.0418 9.00912 13.8215 9.28909 13.8215H12.2891ZM3.93948 6.66522C4.24948 6.3445 4.78909 6.56479 4.78909 7.01581V8.80975H7.28909C7.56902 8.80975 7.78898 9.0302 7.78909 9.31073V12.3176C7.78909 12.5982 7.56909 12.8185 7.28909 12.8185H4.78909V14.6125C4.78909 15.0635 4.24949 15.2845 3.93948 14.9738L0.149446 11.175C-0.0504222 10.9745 -0.0505103 10.6635 0.149446 10.4631L3.93948 6.66522ZM16.7901 7.01581C16.7901 6.56479 17.3294 6.3445 17.6494 6.66522L21.4395 10.4631C21.6295 10.6535 21.6297 10.9748 21.4297 11.1652L17.6397 14.964C17.3297 15.2845 16.7901 15.0634 16.7901 14.6125V12.8185H14.2901C14.0101 12.8185 13.7901 12.5982 13.7901 12.3176V9.31073C13.7902 9.0302 14.0101 8.80975 14.2901 8.80975H16.7901V7.01581ZM10.4297 0.149595C10.6297 -0.0503812 10.9398 -0.0506509 11.1397 0.149595L14.9297 3.94842C15.2495 4.25914 15.0291 4.80096 14.5791 4.80096H12.7891V7.30585C12.7891 7.58648 12.5691 7.80682 12.2891 7.80682H9.28909C9.00919 7.80672 8.78909 7.58641 8.78909 7.30585V4.80096H6.99905C6.54922 4.80077 6.32973 4.25907 6.63968 3.94842L10.4297 0.149595Z" fill="#FB892D"/>
</svg>
