<svg width="24" height="25" viewBox="0 0 24 25" fill="none" xmlns="http://www.w3.org/2000/svg">
<path d="M13.6668 15.9139C13.9781 15.914 14.2224 16.1582 14.2224 16.4696V19.2498H16.2244C16.7136 19.2498 16.9584 19.8503 16.614 20.1951L12.3992 24.41C12.1768 24.6324 11.8315 24.6324 11.6091 24.41L7.39429 20.1951C7.03868 19.8504 7.2836 19.2498 7.78394 19.2498H9.77418V16.4696C9.77418 16.1582 10.0194 15.9139 10.3308 15.9139H13.6668ZM4.3816 7.97346C4.72632 7.6176 5.32684 7.86173 5.32691 8.36213V10.3533H8.10621C8.41758 10.3533 8.66285 10.5976 8.66285 10.909V14.2449C8.66285 14.5563 8.41758 14.8016 8.10621 14.8016H5.32691V16.7918C5.32691 17.2923 4.72634 17.537 4.3816 17.1922L0.166755 12.9774C-0.055612 12.755 -0.0555582 12.4107 0.166755 12.1883L4.3816 7.97346ZM18.6716 8.36213C18.6717 7.86173 19.2728 7.6176 19.6287 7.97346L23.8425 12.1883C24.0538 12.3996 24.0542 12.7553 23.8318 12.9666L19.617 17.1815C19.2722 17.5372 18.6716 17.2922 18.6716 16.7918V14.8016H15.8914C15.5802 14.8014 15.3357 14.5562 15.3357 14.2449V10.909C15.3357 10.5977 15.5802 10.3535 15.8914 10.3533H18.6716V8.36213ZM11.5984 0.743968C11.8208 0.521542 12.165 0.521542 12.3875 0.743968L16.6023 4.95881C16.958 5.30349 16.7138 5.90381 16.2136 5.90412H14.2224V8.6844C14.2223 8.99568 13.978 9.24 13.6668 9.24006H10.3308C10.0195 9.24006 9.77426 8.99572 9.77418 8.6844V5.90412H7.78394C7.28356 5.90412 7.03893 5.30359 7.38355 4.95881L11.5984 0.743968Z" fill="#FB892D"/>
</svg>
