<svg width="50" height="50" viewBox="0 0 50 50" fill="none" xmlns="http://www.w3.org/2000/svg">
<path d="M0 9.375V12.5H29.6875V35.9375H20.0688C19.3719 33.2516 16.9562 31.25 14.0625 31.25C11.1687 31.25 8.75313 33.2516 8.05625 35.9375H6.25V28.125H3.125V39.0625H8.05625C8.75313 41.7484 11.1687 43.75 14.0625 43.75C16.9562 43.75 19.3719 41.7484 20.0688 39.0625H33.0563C33.7531 41.7484 36.1688 43.75 39.0625 43.75C41.9562 43.75 44.3719 41.7484 45.0687 39.0625H50V26.3188L49.9016 26.0734L46.7766 16.6984L46.4375 15.625H32.8125V9.375H0ZM1.5625 15.625V18.75H15.625V15.625H1.5625ZM32.8125 18.75H44.1891L46.875 26.7578V35.9375H45.0687C44.3719 33.2516 41.9562 31.25 39.0625 31.25C36.1688 31.25 33.7531 33.2516 33.0563 35.9375H32.8125V18.75ZM3.125 21.875V25H12.5V21.875H3.125ZM14.0625 34.375C15.8078 34.375 17.1875 35.7547 17.1875 37.5C17.1875 39.2453 15.8078 40.625 14.0625 40.625C12.3172 40.625 10.9375 39.2453 10.9375 37.5C10.9375 35.7547 12.3172 34.375 14.0625 34.375ZM39.0625 34.375C40.8078 34.375 42.1875 35.7547 42.1875 37.5C42.1875 39.2453 40.8078 40.625 39.0625 40.625C37.3172 40.625 35.9375 39.2453 35.9375 37.5C35.9375 35.7547 37.3172 34.375 39.0625 34.375Z" fill="#FC7D27"/>
</svg>
