<svg width="18" height="17" viewBox="0 0 18 17" fill="none" xmlns="http://www.w3.org/2000/svg">
<g clip-path="url(#clip0_162_1681)">
<path d="M8.01956 0.541843C8.32346 -0.180615 9.35855 -0.180614 9.66242 0.541845L11.4561 4.80592C11.5843 5.11049 11.874 5.3186 12.2065 5.34496L16.8622 5.71402C17.651 5.77654 17.9708 6.74989 17.3698 7.25893L13.8227 10.2633C13.5693 10.4779 13.4587 10.8147 13.5361 11.1354L14.6197 15.6277C14.8034 16.3887 13.966 16.9904 13.2907 16.5825L9.30471 14.1752C9.02003 14.0032 8.66197 14.0032 8.37727 14.1752L4.39132 16.5825C3.71597 16.9904 2.87859 16.3887 3.0622 15.6277L4.14592 11.1354C4.22333 10.8147 4.11267 10.4779 3.85933 10.2633L0.312142 7.25893C-0.288851 6.74989 0.0310036 5.77654 0.819818 5.71402L5.47555 5.34496C5.80809 5.3186 6.09778 5.11049 6.22589 4.80592L8.01956 0.541843Z" fill="#FC7D27"/>
</g>
<defs>
<clipPath id="clip0_162_1681">
<rect width="17.682" height="16.8125" fill="white"/>
</clipPath>
</defs>
</svg>
