<svg width="24" height="24" viewBox="0 0 24 24" fill="none" xmlns="http://www.w3.org/2000/svg">
<path d="M2.8291 9.69205C3.9291 9.69205 4.8291 10.592 4.8291 11.692V19.692C4.82908 20.792 3.92909 21.692 2.8291 21.692C1.72911 21.692 0.829118 20.792 0.829102 19.692V11.692C0.829102 10.592 1.7291 9.69205 2.8291 9.69205ZM12.9492 2.75162C13.5292 2.16188 14.4697 2.16194 15.0596 2.74185C15.4195 3.10184 15.5687 3.61204 15.4688 4.11197L14.5195 8.69205H20.1689C22.3189 8.69205 23.7686 10.8918 22.9287 12.8717L19.6689 20.4821C19.3489 21.212 18.6291 21.692 17.8291 21.692H8.8291C7.72911 21.692 6.82912 20.792 6.8291 19.692V9.70181C6.82916 9.17188 7.03923 8.66161 7.40918 8.29165L12.9492 2.75162Z" fill="#FC7D27"/>
</svg>
